<svg version="1.1" id="Layer_1" xmlns="http://www.w3.org/2000/svg" xmlns:xlink="http://www.w3.org/1999/xlink" x="0px" y="0px"
	 width="100%" viewBox="0 0 506 106" enable-background="new 0 0 506 106" xml:space="preserve">
<path fill="#FEFEFE" opacity="1.000000" stroke="none" 
	d="
M375.000000,107.000000 
	C250.000031,107.000000 125.500076,107.000000 1.000083,107.000000 
	C1.000056,71.666718 1.000056,36.333427 1.000028,1.000107 
	C169.666565,1.000072 338.333130,1.000072 506.999756,1.000036 
	C506.999847,36.333225 506.999847,71.666451 506.999939,106.999832 
	C463.166656,107.000000 419.333344,107.000000 375.000000,107.000000 
M98.104431,61.497948 
	C98.102676,47.179977 98.126907,32.861942 98.089172,18.544067 
	C98.067375,10.276147 94.805710,6.973182 86.774117,6.970864 
	C63.299236,6.964091 39.824341,6.955499 16.349485,6.982055 
	C10.271071,6.988931 6.145071,10.577993 6.089830,16.653105 
	C5.912723,36.130623 5.915764,55.611691 6.084671,75.089355 
	C6.140479,81.524933 10.150056,84.964493 16.669758,84.999443 
	C21.048468,85.022919 25.427404,85.003914 30.921486,85.003914 
	C27.534956,91.659508 24.675760,97.278725 21.573355,103.375931 
	C31.921471,101.213272 42.147224,98.409943 49.641750,91.848778 
	C57.905689,84.614029 66.701721,84.718979 76.204079,84.985451 
	C80.196663,85.097420 84.195480,85.043495 88.190613,84.994881 
	C94.149788,84.922379 97.788185,81.495926 98.045967,75.480942 
	C98.231140,71.159920 98.095955,66.825165 98.104431,61.497948 
M313.683960,50.943546 
	C313.127258,49.787216 312.570526,48.630890 311.995758,47.437012 
	C312.963409,46.636143 313.796875,46.074810 314.474548,45.364819 
	C319.196838,40.417309 318.714752,34.520355 317.238770,28.599241 
	C315.812439,22.877247 310.968689,21.712563 306.068481,21.202553 
	C302.606873,20.842266 299.079773,21.139589 295.582977,21.079769 
	C292.815521,21.032427 291.751617,22.411829 291.760010,25.077259 
	C291.799469,37.569622 291.829071,50.062576 291.736755,62.554394 
	C291.714355,65.585396 293.474396,67.249344 295.863892,66.696144 
	C297.494415,66.318649 299.590698,63.973389 299.815643,62.286194 
	C300.380859,58.047001 300.002502,53.681992 300.002502,47.590549 
	C302.257202,49.482784 303.946960,50.270817 304.615967,51.580334 
	C306.636444,55.535244 308.285950,59.681850 310.029358,63.775326 
	C311.047760,66.166519 312.470367,68.006378 315.286987,66.585968 
	C317.868713,65.283997 319.405487,63.219734 317.950531,60.102753 
	C316.630646,57.275192 315.301727,54.451859 313.683960,50.943546 
M142.690720,21.121315 
	C137.028412,21.104691 131.365158,21.145004 125.704132,21.051165 
	C122.008499,20.989906 120.217819,22.461689 120.253700,26.363699 
	C120.362442,38.187775 120.330460,50.013672 120.270798,61.838444 
	C120.252876,65.390762 121.826866,67.041290 125.377235,67.002502 
	C130.539673,66.946098 135.708664,66.845001 140.864304,67.040642 
	C144.222519,67.168091 145.354721,65.470459 145.349762,62.557861 
	C145.344940,59.719387 144.395432,57.801815 140.967194,57.965454 
	C137.045670,58.152637 133.108322,58.008816 129.285751,58.008816 
	C129.285751,54.279839 129.285751,51.197227 129.285751,48.734119 
	C132.470428,46.238979 138.337875,50.971832 138.876968,44.577808 
	C139.560516,36.470287 131.855988,42.029236 129.357529,39.497906 
	C129.357529,36.157570 129.357529,33.087620 129.357529,29.910774 
	C133.072357,29.910774 136.418320,30.109865 139.723816,29.830400 
	C141.490829,29.681009 144.530899,28.903936 144.654251,28.065557 
	C144.970169,25.918167 143.975021,23.577890 142.690720,21.121315 
M423.288605,59.189129 
	C423.807770,60.403862 424.478668,61.578289 424.814331,62.841774 
	C425.498596,65.417419 426.670349,68.063896 429.584839,67.333153 
	C431.495361,66.854118 433.584442,64.767677 434.451996,62.877258 
	C437.198761,56.891907 439.258606,50.595032 441.883667,44.548683 
	C443.420166,41.009521 443.205078,38.483513 439.270020,37.113300 
	C435.324524,35.739445 434.936829,38.931942 434.064728,41.345505 
	C432.619080,45.346554 431.267914,49.381737 429.624237,54.132881 
	C428.008698,49.443584 426.705597,45.720150 425.442993,41.983028 
	C423.313416,35.679882 421.982422,35.290497 416.270691,39.348816 
	C412.948853,35.726028 411.299622,35.829086 406.823578,39.327950 
	C404.228058,38.511925 402.016724,37.057121 400.424591,37.560551 
	C399.188538,37.951393 398.103363,40.760563 398.029480,42.539616 
	C397.753235,49.189426 397.697205,55.870853 398.088928,62.509129 
	C398.179535,64.044441 400.369324,65.455887 401.593170,66.924339 
	C403.069031,65.477737 405.396240,64.246231 405.828369,62.535923 
	C406.540466,59.717464 405.886902,56.581093 406.062897,53.593693 
	C406.325867,49.130249 407.645355,45.504112 413.056458,44.963196 
	C414.352539,44.833633 415.516174,43.379406 416.824707,42.476471 
	C418.853851,47.731483 420.926208,53.098499 423.288605,59.189129 
M177.366760,58.289658 
	C176.588242,62.060776 178.237900,66.024567 175.477844,69.848923 
	C174.589523,71.079803 176.533173,76.030823 178.457840,77.228592 
	C181.457550,79.095398 185.542267,79.888481 189.176086,79.914879 
	C195.132202,79.958138 198.855759,76.119095 199.088943,70.940361 
	C199.348419,65.177650 196.776337,62.346710 190.267532,61.034168 
	C188.087494,60.594551 185.960495,59.891933 183.809265,59.309528 
	C196.971634,56.925037 200.832321,51.340946 197.313995,40.922409 
	C197.536224,38.840801 197.758438,36.759190 197.980667,34.677578 
	C196.054031,35.383411 194.127380,36.089245 190.846542,37.291199 
	C185.813339,36.004524 180.975021,36.763588 178.318100,40.407856 
	C174.914078,45.076874 175.111496,49.896603 178.264908,54.745323 
	C178.671890,55.371109 178.025452,56.681992 177.366760,58.289658 
M260.293823,33.323063 
	C260.290894,30.324238 260.715454,27.236420 260.117035,24.361561 
	C259.783783,22.760731 257.747070,21.514494 256.478088,20.108458 
	C254.999680,21.512690 252.276321,22.883739 252.237869,24.326351 
	C251.900620,36.979084 251.899307,49.648254 252.224243,62.301624 
	C252.264542,63.871449 254.792404,65.377388 256.167603,66.912918 
	C257.541138,65.383095 259.823822,64.001266 260.101898,62.293114 
	C260.709686,58.559361 259.888519,54.596096 260.469421,50.853611 
	C260.783752,48.828518 262.780975,47.064629 264.019012,45.182903 
	C265.335144,47.054085 267.475922,48.796982 267.791229,50.823849 
	C268.398590,54.728268 267.620728,58.841240 268.154297,62.767574 
	C268.361359,64.291290 270.564758,65.543701 271.858765,66.919701 
	C273.238434,65.588882 275.663330,64.361809 275.807587,62.908371 
	C276.298798,57.959793 276.266144,52.911839 275.919250,47.937683 
	C275.268066,38.600281 269.028320,35.040771 260.293945,39.304443 
	C260.293945,37.460323 260.293945,35.861980 260.293823,33.323063 
M467.877899,45.006077 
	C465.527618,39.944561 461.922089,36.656204 456.001312,36.864910 
	C451.226227,37.033230 447.073669,39.404549 446.115967,43.799458 
	C445.003937,48.902760 444.738617,54.631748 445.905792,59.672348 
	C447.195282,65.240929 452.145203,67.454857 457.909180,67.041100 
	C462.592804,66.704887 467.117188,62.916443 467.976898,57.578865 
	C468.594269,53.745808 468.055023,49.726456 467.877899,45.006077 
M393.304657,44.575153 
	C390.714722,38.740829 387.125000,36.420979 381.406860,36.886238 
	C376.205383,37.309456 371.820831,41.013172 371.017883,46.604248 
	C370.464508,50.457527 370.345581,54.590340 371.124359,58.373459 
	C372.848511,66.749168 385.343445,70.544449 391.643463,64.721252 
	C392.733215,63.713974 392.651154,61.438988 393.110382,59.749561 
	C391.459869,59.338497 389.820038,58.678688 388.154938,58.607243 
	C387.112946,58.562531 386.034637,59.773762 384.969696,59.778717 
	C381.632294,59.794262 378.624329,59.150440 379.242920,54.159309 
	C382.992859,54.159309 386.710602,54.643860 390.245514,54.046463 
	C395.635101,53.135632 393.814026,48.695580 393.304657,44.575153 
M340.121063,54.247635 
	C343.499481,54.274750 344.778473,52.240746 345.022247,49.222935 
	C345.539459,42.819874 340.513763,37.133606 334.110474,36.859463 
	C327.977509,36.596893 323.598267,40.052113 321.642517,46.696747 
	C319.412598,54.272579 321.933044,62.418880 327.507721,65.653656 
	C331.232666,67.815109 339.375977,67.804771 342.111755,65.066277 
	C343.334167,63.842659 343.347015,61.410694 343.908783,59.527107 
	C342.222443,59.232391 340.541016,58.761692 338.847778,58.714455 
	C337.951324,58.689445 337.065338,59.529514 336.121124,59.756783 
	C332.497101,60.629086 330.229248,58.575272 330.280670,54.271545 
	C333.254578,54.271545 336.233765,54.271545 340.121063,54.247635 
M157.003174,51.793152 
	C156.928345,48.950233 156.550537,45.337597 160.432404,45.325405 
	C164.192841,45.313591 164.106354,48.839489 164.070633,51.753170 
	C164.027756,55.251122 163.618378,58.832436 164.246414,62.214478 
	C164.570709,63.960812 166.570572,66.286507 168.217758,66.686943 
	C170.658768,67.280350 172.444168,65.502106 172.352890,62.538212 
	C172.188950,57.214394 172.874985,51.724617 171.762558,46.618633 
	C171.013474,43.180439 168.403748,39.200790 165.453568,37.510803 
	C163.371918,36.318348 159.323044,38.560062 156.366135,39.220810 
	C155.011444,38.678837 153.077484,37.224430 151.407471,37.481922 
	C150.336121,37.647110 148.977905,40.307877 148.914230,41.896698 
	C148.640945,48.716072 148.586533,55.564507 148.961502,62.374313 
	C149.047775,63.941166 151.148239,65.397110 152.321762,66.904099 
	C153.859680,65.507401 156.350464,64.329048 156.731262,62.667202 
	C157.457611,59.497421 156.980591,56.051891 157.003174,51.793152 
M348.992859,41.816296 
	C346.714264,48.910854 348.488861,52.424427 355.285339,54.963581 
	C357.211884,55.683350 358.871704,57.117065 360.653870,58.223354 
	C360.350677,58.889183 360.047485,59.555016 359.744293,60.220844 
	C357.461578,59.786083 355.193939,59.207485 352.890961,58.965771 
	C351.284058,58.797115 349.628754,59.089966 347.995056,59.176682 
	C348.409241,61.070770 348.239471,64.034935 349.355103,64.643784 
	C351.951019,66.060493 355.142059,66.828720 358.135895,66.977913 
	C363.572571,67.248848 366.619873,64.526222 367.529602,59.479267 
	C368.405029,54.622856 366.172516,50.894142 361.277496,49.001781 
	C359.107666,48.162945 356.950470,47.291454 354.787537,46.434784 
	C354.925262,45.772545 355.062988,45.110310 355.200684,44.448071 
	C357.385254,44.611084 359.585083,45.004772 361.749359,44.861435 
	C363.373596,44.753868 364.952118,43.955879 366.550995,43.465271 
	C365.880737,41.687027 365.731262,39.144230 364.446045,38.268738 
	C359.945465,35.202934 353.146515,36.723709 348.992859,41.816296 
M231.850296,66.016670 
	C238.706772,68.404160 244.958603,67.456909 246.976837,63.004475 
	C251.946304,52.041225 243.242310,49.323780 235.690567,45.395359 
	C238.415802,44.628944 240.690491,45.103516 242.938156,44.998634 
	C244.366989,44.931961 246.557007,44.341446 246.961609,43.378845 
	C247.479233,42.147335 246.736679,39.010368 246.203247,38.930710 
	C241.967758,38.298203 237.430344,37.250298 233.423767,38.192684 
	C229.235992,39.177689 228.683105,43.630203 228.988998,47.686764 
	C229.322083,52.103928 232.545990,53.513237 236.029495,55.002880 
	C237.854340,55.783245 239.274414,57.510197 240.877289,58.809662 
	C238.640747,58.914829 236.404770,59.059761 234.167206,59.090317 
	C233.739563,59.096157 233.322830,58.493214 232.871536,58.444489 
	C231.669876,58.314747 229.861160,57.831417 229.372406,58.406067 
	C228.534607,59.391060 227.990494,61.210102 228.303314,62.426956 
	C228.623276,63.671642 230.121399,64.613449 231.850296,66.016670 
M210.999649,60.198647 
	C210.999649,48.713482 210.921799,37.227440 211.051636,25.743744 
	C211.086258,22.679579 210.544510,20.272795 207.054779,20.188618 
	C203.576691,20.104723 202.842697,22.366756 202.878311,25.516768 
	C203.011871,37.333328 203.004028,49.153046 202.881912,60.969852 
	C202.851089,63.952148 203.264099,66.655701 206.643356,66.794678 
	C210.173340,66.939857 211.462952,64.488297 210.999649,60.198647 
M493.761627,61.061272 
	C493.761871,59.899921 493.735931,58.737877 493.766785,57.577339 
	C493.920807,51.786148 493.126465,45.528633 501.691071,44.656761 
	C502.585571,44.565701 503.870667,41.387135 503.671326,39.805340 
	C503.528137,38.669147 501.018585,36.810757 499.906433,37.027599 
	C497.523590,37.492207 495.362061,39.091908 494.037903,39.759140 
	C492.027985,38.825283 490.006927,37.064117 488.470581,37.416462 
	C487.087372,37.733688 485.393555,40.320271 485.298553,41.989117 
	C484.931427,48.438606 484.866699,54.941383 485.322510,61.379478 
	C485.457977,63.292671 487.371765,66.224854 488.992737,66.636986 
	C491.892609,67.374260 493.838379,65.235794 493.761627,61.061272 
M216.837128,38.663948 
	C216.581680,46.225422 216.376236,53.789078 216.046799,61.347328 
	C215.910248,64.479691 217.065567,66.785004 220.270065,66.847916 
	C223.470627,66.910744 224.715363,64.656738 224.676193,61.524181 
	C224.597519,55.230000 224.719009,48.933266 224.635330,42.639217 
	C224.563095,37.205990 222.820099,36.148407 216.837128,38.663948 
M480.992279,61.079048 
	C480.992340,54.920818 480.884277,48.759903 481.037323,42.605476 
	C481.115875,39.446648 480.132996,37.302017 476.806244,37.103844 
	C473.230347,36.890827 472.436829,39.206577 472.481232,42.297230 
	C472.572144,48.620590 472.576080,54.947227 472.477356,61.270355 
	C472.434174,64.036957 472.943237,66.554977 476.067719,66.779007 
	C479.071777,66.994392 481.093872,65.365433 480.992279,61.079048 
M480.451660,25.108006 
	C478.436493,22.208742 475.667908,21.568825 473.521057,24.268265 
	C472.582642,25.448231 473.284973,28.352768 473.981506,30.194582 
	C474.239014,30.875473 477.257263,31.446831 477.897491,30.855888 
	C479.272003,29.587185 479.919067,27.530371 480.451660,25.108006 
M220.455093,22.690903 
	C218.976318,24.313803 217.497543,25.936703 216.018768,27.559610 
	C217.404755,28.760176 218.737289,30.821960 220.192169,30.912241 
	C221.569290,30.997694 224.334518,28.905371 224.253098,27.964367 
	C224.098923,26.183107 222.343094,24.540459 220.455093,22.690903 
z"/>
<path fill="#02C699" opacity="1.000000" stroke="none" 
	d="
M98.104057,61.997242 
	C98.095955,66.825165 98.231140,71.159920 98.045967,75.480942 
	C97.788185,81.495926 94.149788,84.922379 88.190613,84.994881 
	C84.195480,85.043495 80.196663,85.097420 76.204079,84.985451 
	C66.701721,84.718979 57.905689,84.614029 49.641750,91.848778 
	C42.147224,98.409943 31.921471,101.213272 21.573355,103.375931 
	C24.675760,97.278725 27.534956,91.659508 30.921486,85.003914 
	C25.427404,85.003914 21.048468,85.022919 16.669758,84.999443 
	C10.150056,84.964493 6.140479,81.524933 6.084671,75.089355 
	C5.915764,55.611691 5.912723,36.130623 6.089830,16.653105 
	C6.145071,10.577993 10.271071,6.988931 16.349485,6.982055 
	C39.824341,6.955499 63.299236,6.964091 86.774117,6.970864 
	C94.805710,6.973182 98.067375,10.276147 98.089172,18.544067 
	C98.126907,32.861942 98.102676,47.179977 98.104057,61.997242 
M70.462982,51.130402 
	C72.980209,53.697563 75.829636,53.891079 78.353119,51.501625 
	C81.212883,48.793755 81.584648,45.112339 79.238159,42.132042 
	C77.991501,40.548653 74.898506,39.134613 73.081711,39.555477 
	C69.452042,40.396294 68.194748,43.690079 68.790123,47.383480 
	C68.965714,48.472763 69.573189,49.492424 70.462982,51.130402 
M26.564985,52.048481 
	C29.879898,54.013191 32.709160,53.211555 34.675964,50.142448 
	C36.675205,47.022728 36.597351,43.510967 33.604935,41.238369 
	C32.023125,40.037052 28.951742,39.430466 27.178270,40.133350 
	C23.513819,41.585690 23.527468,45.269165 24.177622,48.648670 
	C24.378853,49.694664 25.325628,50.597225 26.564985,52.048481 
M46.758343,48.648525 
	C47.684071,52.126099 50.250465,53.979427 53.376480,52.711201 
	C55.352955,51.909340 57.300842,49.261925 57.844540,47.087906 
	C58.851971,43.059624 55.921494,39.320374 52.486557,39.090500 
	C48.762066,38.841248 46.086109,42.744923 46.758343,48.648525 
z"/>
<path fill="#1F515B" opacity="1.000000" stroke="none" 
	d="
M313.830383,51.285103 
	C315.301727,54.451859 316.630646,57.275192 317.950531,60.102753 
	C319.405487,63.219734 317.868713,65.283997 315.286987,66.585968 
	C312.470367,68.006378 311.047760,66.166519 310.029358,63.775326 
	C308.285950,59.681850 306.636444,55.535244 304.615967,51.580334 
	C303.946960,50.270817 302.257202,49.482784 300.002502,47.590549 
	C300.002502,53.681992 300.380859,58.047001 299.815643,62.286194 
	C299.590698,63.973389 297.494415,66.318649 295.863892,66.696144 
	C293.474396,67.249344 291.714355,65.585396 291.736755,62.554394 
	C291.829071,50.062576 291.799469,37.569622 291.760010,25.077259 
	C291.751617,22.411829 292.815521,21.032427 295.582977,21.079769 
	C299.079773,21.139589 302.606873,20.842266 306.068481,21.202553 
	C310.968689,21.712563 315.812439,22.877247 317.238770,28.599241 
	C318.714752,34.520355 319.196838,40.417309 314.474548,45.364819 
	C313.796875,46.074810 312.963409,46.636143 311.995758,47.437012 
	C312.570526,48.630890 313.127258,49.787216 313.830383,51.285103 
M300.074707,30.786686 
	C300.074707,34.166016 300.074707,37.545341 300.074707,40.886414 
	C308.528381,41.212151 310.482758,39.929958 309.978912,34.720337 
	C309.352264,28.241173 304.501801,30.081560 300.074707,30.786686 
z"/>
<path fill="#25565F" opacity="1.000000" stroke="none" 
	d="
M143.097427,21.218029 
	C143.975021,23.577890 144.970169,25.918167 144.654251,28.065557 
	C144.530899,28.903936 141.490829,29.681009 139.723816,29.830400 
	C136.418320,30.109865 133.072357,29.910774 129.357529,29.910774 
	C129.357529,33.087620 129.357529,36.157570 129.357529,39.497906 
	C131.855988,42.029236 139.560516,36.470287 138.876968,44.577808 
	C138.337875,50.971832 132.470428,46.238979 129.285751,48.734119 
	C129.285751,51.197227 129.285751,54.279839 129.285751,58.008816 
	C133.108322,58.008816 137.045670,58.152637 140.967194,57.965454 
	C144.395432,57.801815 145.344940,59.719387 145.349762,62.557861 
	C145.354721,65.470459 144.222519,67.168091 140.864304,67.040642 
	C135.708664,66.845001 130.539673,66.946098 125.377235,67.002502 
	C121.826866,67.041290 120.252876,65.390762 120.270798,61.838444 
	C120.330460,50.013672 120.362442,38.187775 120.253700,26.363699 
	C120.217819,22.461689 122.008499,20.989906 125.704132,21.051165 
	C131.365158,21.145004 137.028412,21.104691 143.097427,21.218029 
z"/>
<path fill="#20525C" opacity="1.000000" stroke="none" 
	d="
M423.143616,58.827324 
	C420.926208,53.098499 418.853851,47.731483 416.824707,42.476471 
	C415.516174,43.379406 414.352539,44.833633 413.056458,44.963196 
	C407.645355,45.504112 406.325867,49.130249 406.062897,53.593693 
	C405.886902,56.581093 406.540466,59.717464 405.828369,62.535923 
	C405.396240,64.246231 403.069031,65.477737 401.593170,66.924332 
	C400.369324,65.455887 398.179535,64.044441 398.088928,62.509129 
	C397.697205,55.870853 397.753235,49.189426 398.029480,42.539616 
	C398.103363,40.760563 399.188538,37.951393 400.424591,37.560551 
	C402.016724,37.057121 404.228058,38.511925 406.823578,39.327950 
	C411.299622,35.829086 412.948853,35.726028 416.270691,39.348816 
	C421.982422,35.290497 423.313416,35.679882 425.442993,41.983028 
	C426.705597,45.720150 428.008698,49.443584 429.624237,54.132881 
	C431.267914,49.381737 432.619080,45.346554 434.064728,41.345505 
	C434.936829,38.931942 435.324524,35.739445 439.270020,37.113300 
	C443.205078,38.483513 443.420166,41.009521 441.883667,44.548683 
	C439.258606,50.595032 437.198761,56.891907 434.451996,62.877258 
	C433.584442,64.767677 431.495361,66.854118 429.584839,67.333153 
	C426.670349,68.063896 425.498596,65.417419 424.814331,62.841774 
	C424.478668,61.578289 423.807770,60.403862 423.143616,58.827324 
z"/>
<path fill="#1F515B" opacity="1.000000" stroke="none" 
	d="
M177.616882,57.982590 
	C178.025452,56.681992 178.671890,55.371109 178.264908,54.745323 
	C175.111496,49.896603 174.914078,45.076874 178.318100,40.407856 
	C180.975021,36.763588 185.813339,36.004524 190.846542,37.291199 
	C194.127380,36.089245 196.054031,35.383411 197.980667,34.677582 
	C197.758438,36.759190 197.536224,38.840801 197.313995,40.922409 
	C200.832321,51.340946 196.971634,56.925037 183.809265,59.309528 
	C185.960495,59.891933 188.087494,60.594551 190.267532,61.034168 
	C196.776337,62.346710 199.348419,65.177650 199.088943,70.940361 
	C198.855759,76.119095 195.132202,79.958138 189.176086,79.914879 
	C185.542267,79.888481 181.457550,79.095398 178.457840,77.228592 
	C176.533173,76.030823 174.589523,71.079803 175.477844,69.848923 
	C178.237900,66.024567 176.588242,62.060776 177.616882,57.982590 
M187.387878,52.680721 
	C190.302948,49.904255 191.061493,45.154400 188.661514,43.249733 
	C187.959625,42.692699 186.082199,42.684597 185.375549,43.235508 
	C182.973038,45.108578 183.715103,49.871098 187.387878,52.680721 
M184.104889,67.331535 
	C184.171051,69.229652 183.651566,71.490448 184.519531,72.892029 
	C185.053802,73.754761 187.873520,73.780502 189.345917,73.264900 
	C190.215286,72.960464 191.205475,70.044693 190.850494,69.721642 
	C189.451630,68.448555 187.551483,67.717407 185.809708,66.840065 
	C185.564789,66.716698 185.166382,66.898026 184.104889,67.331535 
z"/>
<path fill="#20525C" opacity="1.000000" stroke="none" 
	d="
M260.293884,33.793350 
	C260.293945,35.861980 260.293945,37.460323 260.293945,39.304443 
	C269.028320,35.040771 275.268066,38.600281 275.919250,47.937683 
	C276.266144,52.911839 276.298798,57.959793 275.807587,62.908371 
	C275.663330,64.361809 273.238434,65.588882 271.858765,66.919701 
	C270.564758,65.543701 268.361359,64.291290 268.154297,62.767574 
	C267.620728,58.841240 268.398590,54.728268 267.791229,50.823849 
	C267.475922,48.796982 265.335144,47.054085 264.019012,45.182903 
	C262.780975,47.064629 260.783752,48.828518 260.469421,50.853611 
	C259.888519,54.596096 260.709686,58.559361 260.101898,62.293114 
	C259.823822,64.001266 257.541138,65.383095 256.167603,66.912918 
	C254.792404,65.377388 252.264542,63.871449 252.224243,62.301624 
	C251.899307,49.648254 251.900620,36.979084 252.237869,24.326351 
	C252.276321,22.883739 254.999680,21.512690 256.478088,20.108454 
	C257.747070,21.514494 259.783783,22.760731 260.117035,24.361561 
	C260.715454,27.236420 260.290894,30.324238 260.293884,33.793350 
z"/>
<path fill="#22545D" opacity="1.000000" stroke="none" 
	d="
M467.954803,45.398144 
	C468.055023,49.726456 468.594269,53.745808 467.976898,57.578865 
	C467.117188,62.916443 462.592804,66.704887 457.909180,67.041100 
	C452.145203,67.454857 447.195282,65.240929 445.905792,59.672348 
	C444.738617,54.631748 445.003937,48.902760 446.115967,43.799458 
	C447.073669,39.404549 451.226227,37.033230 456.001312,36.864910 
	C461.922089,36.656204 465.527618,39.944561 467.954803,45.398144 
M455.714447,45.271793 
	C453.118927,47.564907 451.744415,54.256859 453.513184,56.904354 
	C455.061615,59.222054 457.003326,59.996693 459.122681,57.418999 
	C461.615723,54.386761 460.084167,47.193298 455.714447,45.271793 
z"/>
<path fill="#20525C" opacity="1.000000" stroke="none" 
	d="
M393.533813,44.911095 
	C393.814026,48.695580 395.635101,53.135632 390.245514,54.046463 
	C386.710602,54.643860 382.992859,54.159309 379.242920,54.159309 
	C378.624329,59.150440 381.632294,59.794262 384.969696,59.778717 
	C386.034637,59.773762 387.112946,58.562531 388.154938,58.607243 
	C389.820038,58.678688 391.459869,59.338497 393.110382,59.749561 
	C392.651154,61.438988 392.733215,63.713974 391.643463,64.721252 
	C385.343445,70.544449 372.848511,66.749168 371.124359,58.373459 
	C370.345581,54.590340 370.464508,50.457527 371.017883,46.604248 
	C371.820831,41.013172 376.205383,37.309456 381.406860,36.886238 
	C387.125000,36.420979 390.714722,38.740829 393.533813,44.911095 
M384.227661,48.970146 
	C384.703644,47.761703 385.179626,46.553261 385.655609,45.344818 
	C384.151703,44.917805 382.341431,43.775291 381.225006,44.253284 
	C379.960907,44.794487 379.319092,46.789059 377.854309,48.976643 
	C380.711151,48.976643 382.028198,48.976643 384.227661,48.970146 
z"/>
<path fill="#1F515B" opacity="1.000000" stroke="none" 
	d="
M339.666992,54.259590 
	C336.233765,54.271545 333.254578,54.271545 330.280670,54.271545 
	C330.229248,58.575272 332.497101,60.629086 336.121124,59.756783 
	C337.065338,59.529514 337.951324,58.689445 338.847778,58.714455 
	C340.541016,58.761692 342.222443,59.232391 343.908783,59.527107 
	C343.347015,61.410694 343.334167,63.842659 342.111755,65.066277 
	C339.375977,67.804771 331.232666,67.815109 327.507721,65.653656 
	C321.933044,62.418880 319.412598,54.272579 321.642517,46.696747 
	C323.598267,40.052113 327.977509,36.596893 334.110474,36.859463 
	C340.513763,37.133606 345.539459,42.819874 345.022247,49.222935 
	C344.778473,52.240746 343.499481,54.274750 339.666992,54.259590 
M334.414459,48.998367 
	C335.264160,48.201176 336.113831,47.403984 336.963501,46.606792 
	C335.638214,45.702995 334.027863,43.827335 333.051697,44.113689 
	C331.417328,44.593143 330.187592,46.451805 328.787537,47.730007 
	C329.087158,48.094311 329.386780,48.458614 329.686401,48.822918 
	C330.977570,48.881809 332.268768,48.940701 334.414459,48.998367 
z"/>
<path fill="#1F515B" opacity="1.000000" stroke="none" 
	d="
M157.003143,52.256996 
	C156.980591,56.051891 157.457611,59.497421 156.731262,62.667202 
	C156.350464,64.329048 153.859680,65.507401 152.321762,66.904099 
	C151.148239,65.397110 149.047775,63.941166 148.961502,62.374313 
	C148.586533,55.564507 148.640945,48.716072 148.914230,41.896698 
	C148.977905,40.307877 150.336121,37.647110 151.407471,37.481922 
	C153.077484,37.224430 155.011444,38.678837 156.366135,39.220810 
	C159.323044,38.560062 163.371918,36.318348 165.453568,37.510803 
	C168.403748,39.200790 171.013474,43.180439 171.762558,46.618633 
	C172.874985,51.724617 172.188950,57.214394 172.352890,62.538212 
	C172.444168,65.502106 170.658768,67.280350 168.217758,66.686943 
	C166.570572,66.286507 164.570709,63.960812 164.246414,62.214478 
	C163.618378,58.832436 164.027756,55.251122 164.070633,51.753170 
	C164.106354,48.839489 164.192841,45.313591 160.432404,45.325405 
	C156.550537,45.337597 156.928345,48.950233 157.003143,52.256996 
z"/>
<path fill="#21535D" opacity="1.000000" stroke="none" 
	d="
M349.169800,41.461227 
	C353.146515,36.723709 359.945465,35.202934 364.446045,38.268738 
	C365.731262,39.144230 365.880737,41.687027 366.550995,43.465271 
	C364.952118,43.955879 363.373596,44.753868 361.749359,44.861435 
	C359.585083,45.004772 357.385254,44.611084 355.200684,44.448071 
	C355.062988,45.110310 354.925262,45.772545 354.787537,46.434784 
	C356.950470,47.291454 359.107666,48.162945 361.277496,49.001781 
	C366.172516,50.894142 368.405029,54.622856 367.529602,59.479267 
	C366.619873,64.526222 363.572571,67.248848 358.135895,66.977913 
	C355.142059,66.828720 351.951019,66.060493 349.355103,64.643784 
	C348.239471,64.034935 348.409241,61.070770 347.995056,59.176678 
	C349.628754,59.089966 351.284058,58.797115 352.890961,58.965771 
	C355.193939,59.207485 357.461578,59.786083 359.744293,60.220844 
	C360.047485,59.555016 360.350677,58.889183 360.653870,58.223354 
	C358.871704,57.117065 357.211884,55.683350 355.285339,54.963581 
	C348.488861,52.424427 346.714264,48.910854 349.169800,41.461227 
z"/>
<path fill="#20525C" opacity="1.000000" stroke="none" 
	d="
M231.477051,65.852257 
	C230.121399,64.613449 228.623276,63.671642 228.303314,62.426956 
	C227.990494,61.210102 228.534607,59.391060 229.372406,58.406067 
	C229.861160,57.831417 231.669876,58.314747 232.871536,58.444489 
	C233.322830,58.493214 233.739563,59.096157 234.167206,59.090317 
	C236.404770,59.059761 238.640747,58.914829 240.877289,58.809662 
	C239.274414,57.510197 237.854340,55.783245 236.029495,55.002880 
	C232.545990,53.513237 229.322083,52.103928 228.988998,47.686764 
	C228.683105,43.630203 229.235992,39.177689 233.423767,38.192684 
	C237.430344,37.250298 241.967758,38.298203 246.203247,38.930710 
	C246.736679,39.010368 247.479233,42.147335 246.961609,43.378845 
	C246.557007,44.341446 244.366989,44.931961 242.938156,44.998634 
	C240.690491,45.103516 238.415802,44.628944 235.690567,45.395359 
	C243.242310,49.323780 251.946304,52.041225 246.976837,63.004475 
	C244.958603,67.456909 238.706772,68.404160 231.477051,65.852257 
z"/>
<path fill="#1D505A" opacity="1.000000" stroke="none" 
	d="
M210.999634,60.656540 
	C211.462952,64.488297 210.173340,66.939857 206.643356,66.794678 
	C203.264099,66.655701 202.851089,63.952148 202.881912,60.969852 
	C203.004028,49.153046 203.011871,37.333328 202.878311,25.516768 
	C202.842697,22.366756 203.576691,20.104723 207.054779,20.188618 
	C210.544510,20.272795 211.086258,22.679579 211.051636,25.743744 
	C210.921799,37.227440 210.999649,48.713482 210.999634,60.656540 
z"/>
<path fill="#265760" opacity="1.000000" stroke="none" 
	d="
M493.760620,61.499001 
	C493.838379,65.235794 491.892609,67.374260 488.992737,66.636986 
	C487.371765,66.224854 485.457977,63.292671 485.322510,61.379478 
	C484.866699,54.941383 484.931427,48.438606 485.298553,41.989117 
	C485.393555,40.320271 487.087372,37.733688 488.470581,37.416462 
	C490.006927,37.064117 492.027985,38.825283 494.037903,39.759140 
	C495.362061,39.091908 497.523590,37.492207 499.906433,37.027599 
	C501.018585,36.810757 503.528137,38.669147 503.671326,39.805340 
	C503.870667,41.387135 502.585571,44.565701 501.691071,44.656761 
	C493.126465,45.528633 493.920807,51.786148 493.766785,57.577339 
	C493.735931,58.737877 493.761871,59.899921 493.760620,61.499001 
z"/>
<path fill="#2C5B65" opacity="1.000000" stroke="none" 
	d="
M217.106308,38.341385 
	C222.820099,36.148407 224.563095,37.205990 224.635330,42.639217 
	C224.719009,48.933266 224.597519,55.230000 224.676193,61.524181 
	C224.715363,64.656738 223.470627,66.910744 220.270065,66.847916 
	C217.065567,66.785004 215.910248,64.479691 216.046799,61.347328 
	C216.376236,53.789078 216.581680,46.225422 217.106308,38.341385 
z"/>
<path fill="#1F515B" opacity="1.000000" stroke="none" 
	d="
M480.991730,61.527092 
	C481.093872,65.365433 479.071777,66.994392 476.067719,66.779007 
	C472.943237,66.554977 472.434174,64.036957 472.477356,61.270355 
	C472.576080,54.947227 472.572144,48.620590 472.481232,42.297230 
	C472.436829,39.206577 473.230347,36.890827 476.806244,37.103844 
	C480.132996,37.302017 481.115875,39.446648 481.037323,42.605476 
	C480.884277,48.759903 480.992340,54.920818 480.991730,61.527092 
z"/>
<path fill="#21535D" opacity="1.000000" stroke="none" 
	d="
M480.657837,25.452126 
	C479.919067,27.530371 479.272003,29.587185 477.897491,30.855888 
	C477.257263,31.446831 474.239014,30.875473 473.981506,30.194582 
	C473.284973,28.352768 472.582642,25.448231 473.521057,24.268265 
	C475.667908,21.568825 478.436493,22.208742 480.657837,25.452126 
z"/>
<path fill="#1F515B" opacity="1.000000" stroke="none" 
	d="
M220.853912,22.765560 
	C222.343094,24.540459 224.098923,26.183107 224.253098,27.964367 
	C224.334518,28.905371 221.569290,30.997694 220.192169,30.912241 
	C218.737289,30.821960 217.404755,28.760176 216.018768,27.559607 
	C217.497543,25.936703 218.976318,24.313803 220.853912,22.765560 
z"/>
<path fill="#F7FDFC" opacity="1.000000" stroke="none" 
	d="
M70.222855,50.837196 
	C69.573189,49.492424 68.965714,48.472763 68.790123,47.383480 
	C68.194748,43.690079 69.452042,40.396294 73.081711,39.555477 
	C74.898506,39.134613 77.991501,40.548653 79.238159,42.132042 
	C81.584648,45.112339 81.212883,48.793755 78.353119,51.501625 
	C75.829636,53.891079 72.980209,53.697563 70.222855,50.837196 
z"/>
<path fill="#F7FDFC" opacity="1.000000" stroke="none" 
	d="
M26.248024,51.806969 
	C25.325628,50.597225 24.378853,49.694664 24.177622,48.648670 
	C23.527468,45.269165 23.513819,41.585690 27.178270,40.133350 
	C28.951742,39.430466 32.023125,40.037052 33.604935,41.238369 
	C36.597351,43.510967 36.675205,47.022728 34.675964,50.142448 
	C32.709160,53.211555 29.879898,54.013191 26.248024,51.806969 
z"/>
<path fill="#F6FDFB" opacity="1.000000" stroke="none" 
	d="
M46.587444,48.296967 
	C46.086109,42.744923 48.762066,38.841248 52.486557,39.090500 
	C55.921494,39.320374 58.851971,43.059624 57.844540,47.087906 
	C57.300842,49.261925 55.352955,51.909340 53.376480,52.711201 
	C50.250465,53.979427 47.684071,52.126099 46.587444,48.296967 
z"/>
<path fill="#FCFDFD" opacity="1.000000" stroke="none" 
	d="
M300.348450,30.410847 
	C304.501801,30.081560 309.352264,28.241173 309.978912,34.720337 
	C310.482758,39.929958 308.528381,41.212151 300.074707,40.886414 
	C300.074707,37.545341 300.074707,34.166016 300.348450,30.410847 
z"/>
<path fill="#F3F5F6" opacity="1.000000" stroke="none" 
	d="
M187.001923,52.680607 
	C183.715103,49.871098 182.973038,45.108578 185.375549,43.235508 
	C186.082199,42.684597 187.959625,42.692699 188.661514,43.249733 
	C191.061493,45.154400 190.302948,49.904255 187.001923,52.680607 
z"/>
<path fill="#FBFCFC" opacity="1.000000" stroke="none" 
	d="
M184.471954,67.134933 
	C185.166382,66.898026 185.564789,66.716698 185.809708,66.840065 
	C187.551483,67.717407 189.451630,68.448555 190.850494,69.721642 
	C191.205475,70.044693 190.215286,72.960464 189.345917,73.264900 
	C187.873520,73.780502 185.053802,73.754761 184.519531,72.892029 
	C183.651566,71.490448 184.171051,69.229652 184.471954,67.134933 
z"/>
<path fill="#FCFCFD" opacity="1.000000" stroke="none" 
	d="
M456.111755,45.204872 
	C460.084167,47.193298 461.615723,54.386761 459.122681,57.418999 
	C457.003326,59.996693 455.061615,59.222054 453.513184,56.904354 
	C451.744415,54.256859 453.118927,47.564907 456.111755,45.204872 
z"/>
<path fill="#FBFCFC" opacity="1.000000" stroke="none" 
	d="
M383.786469,48.973396 
	C382.028198,48.976643 380.711151,48.976643 377.854309,48.976643 
	C379.319092,46.789059 379.960907,44.794487 381.225006,44.253284 
	C382.341431,43.775291 384.151703,44.917805 385.655609,45.344818 
	C385.179626,46.553261 384.703644,47.761703 383.786469,48.973396 
z"/>
<path fill="#F3F5F6" opacity="1.000000" stroke="none" 
	d="
M333.987183,48.998978 
	C332.268768,48.940701 330.977570,48.881809 329.686401,48.822918 
	C329.386780,48.458614 329.087158,48.094311 328.787537,47.730007 
	C330.187592,46.451805 331.417328,44.593143 333.051697,44.113689 
	C334.027863,43.827335 335.638214,45.702995 336.963501,46.606796 
	C336.113831,47.403984 335.264160,48.201176 333.987183,48.998978 
z"/>
</svg>